<?xml version="1.0" encoding="UTF-8"?>
<svg width="50px" height="47px" viewBox="0 0 50 47" version="1.1" xmlns="http://www.w3.org/2000/svg" xmlns:xlink="http://www.w3.org/1999/xlink">
    <!-- Generator: Sketch 49.3 (51167) - http://www.bohemiancoding.com/sketch -->
    <title>back</title>
    <desc>Created with Sketch.</desc>
    <defs></defs>
    <g id="back" stroke="none" stroke-width="1" fill="none" fill-rule="evenodd" fill-opacity="0.3">
        <g id="picture-(1)" fill="#FFFFFF" fill-rule="nonzero">
            <path d="M20.0285714,19.0107143 C20.0285714,21.6178571 17.9142857,23.7357143 15.3035714,23.7357143 C12.7,23.7357143 10.5785714,21.6214286 10.5785714,19.0107143 C10.5785714,16.3964286 12.7,14.2857143 15.3035714,14.2857143 C17.9142857,14.2857143 20.0285714,16.3964286 20.0285714,19.0107143 Z M42.2178571,39.2857143 C42.2178571,39.2857143 40.2678571,23.9714286 34.425,23.9714286 C28.5785714,23.9714286 26.6285714,31.5 22.7392857,31.5 C18.8357143,31.5 18.8357143,29.6178571 14.9392857,29.6178571 C11.0428571,29.6178571 7.14285714,39.2857143 7.14285714,39.2857143 L42.2178571,39.2857143 Z M46.4285714,3.57142857 L3.57142857,3.57142857 L3.57142857,42.8571429 L46.4285714,42.8571429 L46.4285714,3.57142857 Z M46.4285714,0 C48.4035714,0 50,1.6 50,3.57142857 L50,42.8571429 C50,44.8321429 48.4035714,46.4285714 46.4285714,46.4285714 L3.57142857,46.4285714 C1.6,46.4285714 0,44.8321429 0,42.8571429 L0,3.57142857 C0,1.6 1.6,0 3.57142857,0 L46.4285714,0 Z" id="Shape"></path>
        </g>
    </g>
</svg>